<svg width="25.456940" height="24.000000" viewBox="0 0 25.4569 24" fill="none" xmlns="http://www.w3.org/2000/svg" xmlns:xlink="http://www.w3.org/1999/xlink">
	<desc>
			Created with Pixso.
	</desc>
	<defs>
		<filter id="filter_0_798_dd" x="0.000000" y="0.000000" width="25.456940" height="24.000000" filterUnits="userSpaceOnUse" color-interpolation-filters="sRGB">
			<feFlood flood-opacity="0" result="BackgroundImageFix"/>
			<feColorMatrix in="SourceAlpha" type="matrix" values="0 0 0 0 0 0 0 0 0 0 0 0 0 0 0 0 0 0 127 0" result="hardAlpha"/>
			<feOffset dx="0" dy="4"/>
			<feGaussianBlur stdDeviation="1.33333"/>
			<feComposite in2="hardAlpha" operator="out" k2="-1" k3="1"/>
			<feColorMatrix type="matrix" values="0 0 0 0 0 0 0 0 0 0 0 0 0 0 0 0 0 0 0.25 0"/>
			<feBlend mode="normal" in2="BackgroundImageFix" result="effect_dropShadow_1"/>
			<feBlend mode="normal" in="SourceGraphic" in2="effect_dropShadow_1" result="shape"/>
		</filter>
	</defs>
	<g filter="url(#filter_0_798_dd)">
		<path id="Shape" d="M20.7397 2.91309L7.09052 2.91309L6.8876 0.652832C6.85443 0.283203 6.54465 0 6.17355 0L4.71692 0C4.32098 0 4 0.320984 4 0.716919C4 1.11285 4.32098 1.43384 4.71692 1.43384L5.5181 1.43384C5.59955 2.34106 5.62668 2.64343 5.62668 2.64343L5.60596 2.41254C5.59277 2.26556 5.57523 2.07013 5.5593 1.89258C5.63953 2.78619 5.85364 5.17188 6.34268 10.6204C6.40118 11.2825 6.75894 12.001 7.37521 12.4891C6.2641 13.9081 7.27933 16 9.08676 16C10.5869 16 11.645 14.5038 11.1306 13.0867L15.0544 13.0867C14.5406 14.502 15.5964 16 17.0982 16C18.2967 16 19.2717 15.025 19.2717 13.8265C19.2717 12.6279 18.2967 11.6529 17.0982 11.6529L9.09161 11.6529C8.54703 11.6529 8.07245 11.3243 7.86761 10.8456L19.3251 10.1722C19.6378 10.1539 19.9025 9.93445 19.9785 9.63049L21.4352 3.80389C21.5482 3.35211 21.2062 2.91309 20.7397 2.91309ZM5.55591 1.85474C5.55701 1.867 5.55814 1.87964 5.5593 1.89258L5.55591 1.85474ZM5.55591 1.85474L5.55591 1.85474C5.52856 1.55011 5.51813 1.43384 5.51813 1.43384L5.55591 1.85474ZM7.67462 9.42065L18.7152 8.77179L19.8215 4.34692L7.21921 4.34692L7.67462 9.42065ZM8.34711 13.8265C8.34711 14.2343 8.67892 14.5662 9.08676 14.5662C9.49463 14.5662 9.82648 14.2343 9.82648 13.8265C9.82648 13.4186 9.49463 13.0867 9.08676 13.0867C8.67892 13.0867 8.34711 13.4186 8.34711 13.8265ZM17.0981 14.5662C16.6903 14.5662 16.3585 14.2343 16.3585 13.8265C16.3585 13.4186 16.6903 13.0867 17.0981 13.0867C17.506 13.0867 17.8379 13.4186 17.8379 13.8265C17.8379 14.2343 17.506 14.5662 17.0981 14.5662Z" clip-rule="evenodd" fill="#FFFFFF" fill-opacity="1.000000" fill-rule="evenodd"/>
	</g>
</svg>
