<svg width="157" height="56" viewBox="0 0 157 56" fill="none" xmlns="http://www.w3.org/2000/svg">
<g clip-path="url(#clip0_0_781)">
<rect width="157" height="56" rx="10" fill="#F6F8FD"/>
<path d="M78.4922 34.2344C77.6172 34.2344 76.8594 33.9974 76.2188 33.5234C75.5781 33.0443 75.0807 32.3516 74.7266 31.4453C74.3776 30.5339 74.2031 29.4297 74.2031 28.1328C74.2031 26.8411 74.3776 25.7422 74.7266 24.8359C75.0807 23.9297 75.5781 23.2396 76.2188 22.7656C76.8594 22.2865 77.6172 22.0469 78.4922 22.0469C79.3724 22.0469 80.1328 22.2865 80.7734 22.7656C81.4141 23.2396 81.9089 23.9297 82.2578 24.8359C82.612 25.7422 82.7891 26.8411 82.7891 28.1328C82.7891 29.4297 82.6146 30.5339 82.2656 31.4453C81.9167 32.3516 81.4193 33.0443 80.7734 33.5234C80.1328 33.9974 79.3724 34.2344 78.4922 34.2344ZM78.4922 32.1328C79.0755 32.1328 79.526 31.7839 79.8438 31.0859C80.1667 30.388 80.3281 29.4062 80.3281 28.1406C80.3281 26.8698 80.1667 25.888 79.8438 25.1953C79.526 24.4974 79.0755 24.1484 78.4922 24.1484C77.9193 24.1484 77.4714 24.4974 77.1484 25.1953C76.8255 25.888 76.6641 26.8698 76.6641 28.1406C76.6641 29.4062 76.8255 30.388 77.1484 31.0859C77.4714 31.7839 77.9193 32.1328 78.4922 32.1328Z" fill="#1D2026"/>
<path d="M27.3571 29.3321C27.7134 29.3321 28 29.0455 28 28.6893V26.6429C28 26.2866 27.7134 26 27.3571 26H16.6429C16.2866 26 16 26.2866 16 26.6429V28.6893C16 29.0455 16.2866 29.3321 16.6429 29.3321H27.3571Z" fill="#FF7E1B"/>
<mask id="mask0_0_781" style="mask-type:luminance" maskUnits="userSpaceOnUse" x="16" y="26" width="12" height="4">
<path d="M27.3571 29.3321C27.7134 29.3321 28 29.0455 28 28.6893V26.6429C28 26.2866 27.7134 26 27.3571 26H16.6429C16.2866 26 16 26.2866 16 26.6429V28.6893C16 29.0455 16.2866 29.3321 16.6429 29.3321H27.3571Z" fill="white"/>
</mask>
<g mask="url(#mask0_0_781)">
</g>
<path d="M141 29.0232V26.9768C141 26.6205 140.713 26.3339 140.357 26.3339H136.666V22.6429C136.666 22.2866 136.379 22 136.023 22H133.977C133.621 22 133.334 22.2866 133.334 22.6429V26.3339H129.643C129.287 26.3339 129 26.6205 129 26.9768V29.0232C129 29.3795 129.287 29.6661 129.643 29.6661H133.334V33.3571C133.334 33.7134 133.621 34 133.977 34H136.023C136.379 34 136.666 33.7134 136.666 33.3571V29.6661H140.357C140.713 29.6661 141 29.3795 141 29.0232Z" fill="black"/>
<mask id="mask1_0_781" style="mask-type:luminance" maskUnits="userSpaceOnUse" x="129" y="22" width="12" height="12">
<path d="M141 29.0232V26.9768C141 26.6205 140.713 26.3339 140.357 26.3339H136.666V22.6429C136.666 22.2866 136.379 22 136.023 22H133.977C133.621 22 133.334 22.2866 133.334 22.6429V26.3339H129.643C129.287 26.3339 129 26.6205 129 26.9768V29.0232C129 29.3795 129.287 29.6661 129.643 29.6661H133.334V33.3571C133.334 33.7134 133.621 34 133.977 34H136.023C136.379 34 136.666 33.7134 136.666 33.3571V29.6661H140.357C140.713 29.6661 141 29.3795 141 29.0232Z" fill="white"/>
</mask>
<g mask="url(#mask1_0_781)">
<rect x="128.143" y="21.1429" width="13.7143" height="13.7143" fill="#FF7E1B"/>
</g>
</g>
<defs>
<clipPath id="clip0_0_781">
<rect width="157" height="56" fill="white"/>
</clipPath>
</defs>
</svg>
